<?xml version="1.0" encoding="UTF-8" standalone="no"?>
<svg
   xmlns:dc="http://purl.org/dc/elements/1.1/"
   xmlns:cc="http://creativecommons.org/ns#"
   xmlns:rdf="http://www.w3.org/1999/02/22-rdf-syntax-ns#"
   xmlns:svg="http://www.w3.org/2000/svg"
   xmlns="http://www.w3.org/2000/svg"
   version="1.1"
   id="arrow"
   viewBox="0 0 135.87736 135.88383"
   height="38.349438mm"
   width="38.34761mm">
  <g
     transform="translate(-247.78589,-406.64433)"
     id="layer1">
    <g
       transform="translate(29.15314,-6.524155)"
       id="subarrow">
      <g
         id="g19003"
         transform="matrix(1.25,0,0,-1.25,260.37551,468.48253)">
        <path
           style="fill:#f5792e"
           d="M 0,0 2.77,-15.1 0,-30.21 48.5,-15.1 0,0 Z m 0.96,-1.09 45.01,-14.02 -45.01,-14.02 2.54,13.89 0.03,0.13 -0.02,0.14 -2.54,13.88 z"
           id="path19005" />
      </g>
      <g
         id="g19007"
         transform="matrix(1.25,0,0,-1.25,263.08993,463.97578)">
        <path
           style="fill:#f5792e"
           d="M 0,0 2.77,-15.1 0,-30.2 48.5,-15.1 0,0 Z"
           id="path19009" />
      </g>
      <g
         id="g19011"
         transform="matrix(1.25,0,0,-1.25,267.15306,466.85165)">
        <path
           style="fill:#ffffff"
           d="M 0,0 2.17,-11.86 0,-23.72 38.09,-11.86 0,0 Z"
           id="path19013" />
      </g>
    </g>
    <g
       style="stroke-width:4.63794565;stroke-miterlimit:4;stroke-dasharray:none"
       transform="matrix(0.64683814,0,0,-0.64683814,381.66325,474.58948)"
       id="g19023">
      <path
         style="fill:none;stroke:#f5792e;stroke-width:6.18392706;stroke-linejoin:bevel;stroke-miterlimit:4;stroke-dasharray:none"
         id="circle"
         d="m 0,0 c 0,-56.3 -45.64,-101.94 -101.94,-101.94 -56.3,0 -101.94,45.64 -101.94,101.95 0,56.3 45.64,101.94 101.95,101.94 C -45.64,101.94 0,56.3 0,0 Z" />
    </g>
</svg>
